#!OML:ASF F:\VICON\USERDATA\INSTALL\rory3\rory3.ASF
:FULLY-SPECIFIED
:DEGREES
2923
root -1.05306 17.2541 -0.683806 -7.68397 -3.17737 1.16829
lowerback 10.5645 -0.679146 -1.85761
upperback 0.560076 -1.10154 0.450671
thorax -5.29839 -0.493473 1.68234
lowerneck -7.06299 -6.10913 -10.4956
upperneck 4.06506 -7.85442 10.7248
head 3.2069 -3.70571 4.54204
rclavicle -1.11382e-014 1.39149e-015
rhumerus 17.845 -41.2174 -15.0492
rradius 99.5351
rwrist -1.90349
rhand -41.0029 7.73582
rfingers 7.12502
rthumb -13.9345 -21.7773
lclavicle -1.11382e-014 1.39149e-015
lhumerus 1.08117 40.0349 12.8315
lradius 86.4856
lwrist 34.3325
lhand -32.7186 15.1598
lfingers 7.12502
lthumb -5.94258 45.0564
rfemur -5.5616 26.2861 23.0175
rtibia 51.3859
rfoot -32.4418 -4.58141
rtoes -4.74302
lfemur -11.4763 -2.53341 -18.7803
ltibia 57.3662
lfoot -22.9415 -8.06873
ltoes -8.45115
2924
root -1.04399 17.305 -0.681442 -7.64718 -3.53614 1.2233
lowerback 10.5101 -0.581186 -1.80967
upperback 0.474968 -0.9657 0.441824
thorax -5.36388 -0.426339 1.62598
lowerneck -6.9071 -6.11234 -10.5082
upperneck 4.09324 -7.88473 10.8673
head 3.19977 -3.72053 4.58994
rclavicle 5.07522e-015 9.93923e-016
rhumerus 17.7834 -40.6839 -14.9865
rradius 100.935
rwrist -1.69632
rhand -41.1979 7.91238
rfingers 7.12502
rthumb -14.1224 -21.5877
lclavicle 5.07522e-015 9.93923e-016
lhumerus 0.87237 39.5571 12.5877
lradius 88.0092
lwrist 32.6763
lhand -33.1064 13.8771
lfingers 7.12502
lthumb -6.31693 43.7629
rfemur -5.4988 26.1192 22.8438
rtibia 50.964
rfoot -31.9304 -4.4036
rtoes -3.69029
lfemur -11.2515 -1.97923 -18.7725
ltibia 56.8944
lfoot -22.2453 -8.31581
ltoes -8.15286
2925
root -1.03614 17.3782 -0.677502 -7.7244 -3.92929 1.43054
lowerback 10.53 -0.47504 -1.95836
upperback 0.417436 -0.84439 0.421654
thorax -5.43872 -0.361738 1.67164
lowerneck -6.77354 -6.10384 -10.473
upperneck 4.16596 -7.89441 10.8687
head 3.19917 -3.72828 4.58698
rclavicle -4.39811e-015 1.41137e-014
rhumerus 17.6107 -40.0156 -15.1288
rradius 102.402
rwrist -1.55399
rhand -41.3467 8.16858
rfingers 7.12502
rthumb -14.2658 -21.3214
lclavicle -4.39811e-015 1.41137e-014
lhumerus 0.280158 38.9705 12.2535
lradius 89.5567
lwrist 31.073
lhand -33.8192 12.7683
lfingers 7.12502
lthumb -7.00502 42.6324
rfemur -5.27662 26.0389 22.5536
rtibia 50.4232
rfoot -31.0969 -4.09816
rtoes -3.77258
lfemur -10.7531 -1.36231 -18.9392
ltibia 56.1088
lfoot -21.4954 -8.0756
ltoes -8.08313
2926
root -1.03107 17.4717 -0.669563 -7.8581 -4.30852 1.75673
lowerback 10.6029 -0.374653 -2.26665
upperback 0.351594 -0.752965 0.376905
thorax -5.54968 -0.307324 1.78667
lowerneck -6.70395 -6.09888 -10.4658
upperneck 4.37728 -7.90891 10.8503
head 3.25115 -3.73686 4.57913
rclavicle 2.99419e-015 2.127e-014
rhumerus 17.3174 -39.1694 -15.4571
rradius 103.789
rwrist -1.28357
rhand -41.6357 8.10276
rfingers 7.12502
rthumb -14.5441 -21.3674
lclavicle 2.99419e-015 2.127e-014
lhumerus -0.586732 38.318 11.8921
lradius 91.0943
lwrist 29.5248
lhand -34.4314 12.1532
lfingers 7.12502
lthumb -7.59599 41.9968
rfemur -4.9548 25.9588 22.1264
rtibia 49.7382
rfoot -29.9821 -3.62653
rtoes -4.46934
lfemur -10.09 -0.808449 -19.2539
ltibia 55.0435
lfoot -20.5329 -7.74898
ltoes -8.01597
2927
root -1.02463 17.5839 -0.659969 -7.94681 -4.56249 2.27541
lowerback 10.6696 -0.302319 -2.76495
upperback 0.177329 -0.727866 0.271315
thorax -5.76772 -0.277889 1.95573
lowerneck -6.79499 -6.10136 -10.4306
upperneck 5.00993 -7.94516 10.7424
head 3.4528 -3.75172 4.52979
rclavicle 2.11209e-016 6.75868e-015
rhumerus 16.761 -38.0654 -15.7933
rradius 105.13
rwrist -0.933112
rhand -42.004 7.64916
rfingers 7.12502
rthumb -14.899 -21.7951
lclavicle 2.11209e-016 6.75868e-015
lhumerus -1.60166 37.506 11.6862
lradius 92.5434
lwrist 27.7902
lhand -34.6784 11.6712
lfingers 7.12502
lthumb -7.83436 41.506
rfemur -4.63264 25.7924 21.383
rtibia 48.9009
rfoot -28.7052 -2.91176
rtoes -3.94672
lfemur -9.37922 -0.398591 -19.8149
ltibia 53.7467
lfoot -19.3022 -7.57492
ltoes -8.19162
2928
root -1.01569 17.716 -0.647582 -7.96869 -4.73584 2.6766
lowerback 10.5977 -0.248392 -3.10245
upperback -0.0302845 -0.704559 0.172928
thorax -5.94533 -0.252805 2.04001
lowerneck -6.95174 -6.13421 -10.2647
upperneck 5.81989 -8.0292 10.485
head 3.71235 -3.79048 4.40653
rclavicle -1.91206e-014 -7.35503e-015
rhumerus 15.8248 -36.8468 -16.003
rradius 106.37
rwrist -0.705168
rhand -42.1951 7.32968
rfingers 7.12502
rthumb -15.0831 -22.1008
lclavicle -1.91206e-014 -7.35503e-015
lhumerus -2.57241 36.5617 11.7337
lradius 93.8805
lwrist 25.9405
lhand -35.013 11.2541
lfingers 7.12502
lthumb -8.15735 41.0767
rfemur -4.29336 25.5893 20.692
rtibia 47.8788
rfoot -27.1498 -2.15414
rtoes -3.03744
lfemur -8.66942 -0.116397 -20.2528
ltibia 52.3182
lfoot -17.8702 -7.40151
ltoes -9.07386
2929
root -1.00487 17.8656 -0.62953 -7.77795 -4.98718 2.6885
lowerback 10.2258 -0.22471 -3.05111
upperback -0.217963 -0.654216 0.217098
thorax -5.93668 -0.226874 2.04649
lowerneck -7.24068 -6.18935 -10.0862
upperneck 6.59635 -8.12005 10.1333
head 3.98068 -3.83305 4.24808
rclavicle -2.00773e-014 3.97569e-016
rhumerus 14.837 -35.6605 -16.3334
rradius 107.345
rwrist -0.474956
rhand -42.4857 7.19836
rfingers 7.12502
rthumb -15.363 -22.2109
lclavicle -2.00773e-014 3.97569e-016
lhumerus -3.7217 35.6583 11.8377
lradius 95.0754
lwrist 24.2017
lhand -35.4045 11.2556
lfingers 7.12502
lthumb -8.53518 41.0631
rfemur -4.10834 25.4379 20.3233
rtibia 46.688
rfoot -25.2461 -1.44144
rtoes -3.45616
lfemur -8.14981 0.101548 -20.2191
ltibia 50.8609
lfoot -16.2422 -7.25875
ltoes -11.0529
2930
root -0.993113 18.0261 -0.606732 -7.39182 -5.32999 2.35476
lowerback 9.68414 -0.264686 -2.78286
upperback -0.439858 -0.646123 0.474303
thorax -5.86476 -0.225711 2.15871
lowerneck -7.6688 -6.17618 -10.0578
upperneck 7.49643 -8.09564 9.78842
head 4.30536 -3.81934 4.12063
rclavicle -1.02126e-014 -6.75868e-015
rhumerus 14.0573 -34.4145 -16.8709
rradius 108.012
rwrist -0.177975
rhand -42.6009 6.88307
rfingers 7.12502
rthumb -15.474 -22.5176
lclavicle -1.02126e-014 -6.75868e-015
lhumerus -5.30032 34.9187 11.9065
lradius 96.1429
lwrist 22.7772
lhand -35.4604 11.5292
lfingers 7.12502
lthumb -8.58913 41.3345
rfemur -4.06802 25.329 20.23
rtibia 45.3445
rfoot -23.0959 -0.618869
rtoes -3.91207
lfemur -7.83314 0.296624 -19.7607
ltibia 49.4511
lfoot -14.4339 -7.23816
ltoes -13.1064
2931
root -0.981476 18.1902 -0.586825 -6.84409 -5.68796 1.79495
lowerback 8.98448 -0.338861 -2.33496
upperback -0.694032 -0.657668 0.837619
thorax -5.73606 -0.23875 2.28116
lowerneck -8.13155 -6.10896 -10.1547
upperneck 8.53848 -7.99103 9.50361
head 4.68082 -3.76815 4.03804
rclavicle 1.85615e-014 -1.31198e-014
rhumerus 13.2718 -33.1317 -17.5166
rradius 108.42
rwrist 0.260743
rhand -42.4049 6.96644
rfingers 7.12502
rthumb -15.2852 -22.4487
lclavicle 1.85615e-014 -1.31198e-014
lhumerus -7.1218 34.2846 12.0015
lradius 97.0591
lwrist 21.6057
lhand -35.3585 11.398
lfingers 7.12502
lthumb -8.49077 41.2073
rfemur -4.19822 25.2796 20.2959
rtibia 43.9056
rfoot -20.575 0.410842
rtoes -3.20863
lfemur -7.72983 0.451981 -19.0265
ltibia 48.0842
lfoot -12.394 -7.39433
ltoes -13.1313
2932
root -0.967681 18.3578 -0.568832 -6.2904 -5.99356 1.30093
lowerback 8.27316 -0.384449 -1.78434
upperback -0.942067 -0.63565 1.0613
thorax -5.59766 -0.24102 2.19403
lowerneck -8.61673 -6.0993 -10.2016
upperneck 9.5781 -7.97937 9.34916
head 5.07503 -3.75587 3.98131
rclavicle 1.63252e-014 -7.15625e-015
rhumerus 12.0853 -31.9502 -18.1523
rradius 108.655
rwrist 0.769946
rhand -42.2846 6.84671
rfingers 7.12502
rthumb -15.1694 -22.5773
lclavicle 1.63252e-014 -7.15625e-015
lhumerus -8.77273 33.6317 12.2031
lradius 97.7964
lwrist 20.7211
lhand -35.1298 11.3134
lfingers 7.12502
lthumb -8.27003 41.1315
rfemur -4.34457 25.2052 20.2563
rtibia 42.4401
rfoot -17.7954 1.48043
rtoes -2.71899
lfemur -7.67554 0.481157 -18.377
ltibia 46.7315
lfoot -10.1075 -7.62638
ltoes -11.3139
2933
root -0.954262 18.528 -0.546864 -5.84132 -6.22376 0.921961
lowerback 7.60531 -0.411703 -1.28193
upperback -1.12264 -0.608305 1.18138
thorax -5.41299 -0.241997 2.02522
lowerneck -9.05765 -6.16533 -10.0871
upperneck 10.395 -8.0731 9.14108
head 5.39748 -3.79513 3.87443
rclavicle 3.72721e-015 1.47101e-014
rhumerus 10.6369 -30.9408 -18.7814
rradius 108.677
rwrist 1.21902
rhand -42.3102 6.30663
rfingers 7.12502
rthumb -15.194 -23.1155
lclavicle 3.72721e-015 1.47101e-014
lhumerus -10.2535 33.04 12.5523
lradius 98.3236
lwrist 20.1396
lhand -34.7856 11.5523
lfingers 7.12502
lthumb -7.93783 41.3833
rfemur -4.41052 24.8483 20.0509
rtibia 41.027
rfoot -15.1004 2.6766
rtoes -2.55352
lfemur -7.47865 0.435783 -17.8572
ltibia 45.3294
lfoot -7.77425 -7.75027
ltoes -9.57466
2934
root -0.94471 18.6941 -0.526936 -5.49122 -6.35284 0.558655
lowerback 6.98641 -0.416777 -0.790936
upperback -1.18868 -0.562662 1.25879
thorax -5.13651 -0.235431 1.81627
lowerneck -9.53914 -6.26718 -9.90164
upperneck 11.0691 -8.21524 8.95402
head 5.68688 -3.85326 3.75707
rclavicle -8.24956e-015 -1.35174e-014
rhumerus 9.01467 -30.1745 -19.3891
rradius 108.449
rwrist 1.48482
rhand -42.2664 6.01463
rfingers 7.12502
rthumb -15.1518 -23.4107
lclavicle -8.24956e-015 -1.35174e-014
lhumerus -11.4828 32.5996 13.1087
lradius 98.5635
lwrist 19.7824
lhand -34.642 11.9235
lfingers 7.12502
lthumb -7.7992 41.7597
rfemur -4.45409 24.2988 19.8529
rtibia 39.7073
rfoot -12.4741 3.80236
rtoes -2.65067
lfemur -7.18945 0.36097 -17.3253
ltibia 43.8851
lfoot -5.33896 -7.75568
ltoes -8.88849
2935
root -0.940575 18.8554 -0.514998 -5.26444 -6.45771 0.572674
lowerback 6.58808 -0.376731 -0.759886
upperback -1.27732 -0.506436 1.23529
thorax -5.0057 -0.209509 1.76405
lowerneck -9.79958 -6.34699 -9.71531
upperneck 11.4994 -8.3341 8.78242
head 5.86171 -3.90576 3.65256
rclavicle -6.11263e-015 -3.18055e-015
rhumerus 7.26065 -29.4456 -19.9979
rradius 107.99
rwrist 1.63369
rhand -42.0686 5.83115
rfingers 7.12502
rthumb -14.9612 -23.6085
lclavicle -6.11263e-015 -3.18055e-015
lhumerus -12.6999 32.1591 13.6611
lradius 98.5856
lwrist 19.7193
lhand -34.5796 12.0562
lfingers 7.12502
lthumb -7.73902 41.8946
rfemur -4.53058 23.8546 19.3101
rtibia 38.4859
rfoot -9.74382 4.76749
rtoes -2.61006
lfemur -6.86678 0.258131 -17.1512
ltibia 42.3871
lfoot -2.58638 -7.90852
ltoes -8.56152
